<?xml version="1.0" encoding="UTF-8"?>
<svg id="Layer_1" data-name="Layer 1" xmlns="http://www.w3.org/2000/svg" viewBox="0 0 288 288">
  <defs>
    <style>
      .cls-1 {
        stroke: #000;
        stroke-miterlimit: 10;
        stroke-width: 9.5px;
      }
    </style>
  </defs>
  <g>
    <polygon class="cls-1" points="177.11 95.03 163.48 118.99 122.67 190.74 67.42 95.03 96.36 95.03 123 141.18 149.64 95.03 177.11 95.03"/>
    <path d="m123,150.53L59.36,40.29l80.87-.06,10.61,18.37,11.02-18.52,77.72-.09-63.68,110.31-17.88-31.47,10.93-19.21h-16.55l-29.39,50.89Zm-47.19-100.75l47.19,81.74,24.24-41.24,5.34-.15h32.7l-16.33,28.71,7.01,12.34,47.15-81.67-55.84.06-16.56,27.81-15.97-27.65-58.93.04Z"/>
  </g>
  <g>
    <path d="m50.67,253.44h-1.18l-10.87-25.92h4.93l6.7,17.77,6.85-17.77h4.71l-11.14,25.92Z"/>
    <path d="m67.47,252.97v-21.58h-3.48v-3.79h7.98v25.37h-4.5Zm2.46-34.97c.77,0,1.43.27,1.98.82.55.54.82,1.2.82,1.95s-.27,1.43-.82,1.98c-.54.54-1.2.82-1.98.82s-1.41-.27-1.95-.82-.82-1.2-.82-1.98.27-1.43.81-1.97c.54-.54,1.19-.81,1.97-.81Z"/>
    <path d="m92.91,231.93c-.98-.68-1.97-1.02-2.96-1.02-1.6,0-2.99.73-4.18,2.2-1.19,1.47-1.79,3.24-1.79,5.31v14.55h-4.5v-25.37h4.5v4.05c1.64-3.02,4.08-4.53,7.32-4.53.81,0,1.97.14,3.48.43l-1.87,4.38Z"/>
    <path d="m99.59,231.15h-2.94v-3.55h2.94v-5.31l4.5-1.73v7.04h6.97v3.55h-6.97v12.6c0,2.13.36,3.65,1.08,4.55.72.9,1.88,1.35,3.47,1.35,1.15,0,2.35-.29,3.58-.88l.66,3.96c-1.86.47-3.91.71-6.14.71-2.01,0-3.7-.75-5.08-2.24-1.38-1.49-2.07-3.38-2.07-5.65v-14.4Z"/>
    <path d="m119.4,252.97v-21.58h-3.48v-3.79h7.98v25.37h-4.5Zm2.46-34.97c.77,0,1.43.27,1.98.82.55.54.82,1.2.82,1.95s-.27,1.43-.82,1.98c-.54.54-1.2.82-1.98.82s-1.41-.27-1.95-.82-.82-1.2-.82-1.98.27-1.43.81-1.97c.54-.54,1.19-.81,1.97-.81Z"/>
    <path d="m129.4,240.22c0-3.92,1.05-7.08,3.16-9.49,2.11-2.41,4.88-3.61,8.33-3.61,3.63,0,6.45,1.16,8.46,3.47,2.01,2.31,3.01,5.52,3.01,9.63s-1.03,7.32-3.08,9.68c-2.05,2.36-4.85,3.54-8.39,3.54s-6.44-1.19-8.46-3.58c-2.02-2.38-3.03-5.6-3.03-9.64Zm4.74,0c0,6.37,2.25,9.55,6.75,9.55,2.1,0,3.75-.85,4.94-2.56,1.19-1.71,1.79-4.04,1.79-6.99,0-6.29-2.24-9.43-6.73-9.43-2.05,0-3.69.84-4.92,2.51-1.22,1.67-1.84,3.98-1.84,6.92Z"/>
    <path d="m157.66,240.98v-4.15h10.14v4.15h-10.14Z"/>
    <path d="m198.36,253.44h-1.18l-7.44-17.27-7.42,17.27h-1.18l-9.07-25.92h4.81l5.43,16.66,6.75-16.66h1.18l6.97,16.66,5.83-16.66h4.43l-9.1,25.92Z"/>
    <path d="m213.2,252.97v-21.58h-3.48v-3.79h7.98v25.37h-4.5Zm2.46-34.97c.77,0,1.43.27,1.98.82.55.54.82,1.2.82,1.95s-.27,1.43-.82,1.98c-.54.54-1.2.82-1.98.82s-1.41-.27-1.95-.82-.82-1.2-.82-1.98.27-1.43.81-1.97c.54-.54,1.19-.81,1.97-.81Z"/>
    <path d="m240.46,252.97v-14.76c0-2.7-.41-4.59-1.22-5.67-.81-1.08-2.18-1.62-4.09-1.62-1.03,0-2.1.31-3.22.92-1.12.62-1.98,1.37-2.58,2.27v18.86h-4.5v-25.37h3.08l1.42,3.27c1.48-2.5,3.91-3.74,7.27-3.74,5.56,0,8.34,3.38,8.34,10.14v15.71h-4.5Z"/>
  </g>
</svg>