<?xml version="1.0" encoding="UTF-8"?>
<svg id="Layer_1" data-name="Layer 1" xmlns="http://www.w3.org/2000/svg" viewBox="0 0 960 480">
  <defs>
    <style>
      .cls-1, .cls-2 {
        stroke: #000;
        stroke-miterlimit: 10;
      }

      .cls-3 {
        fill: #fff;
      }

      .cls-2 {
        stroke-width: 9.57px;
      }
    </style>
  </defs>
  <rect class="cls-3" y="-.25" width="960" height="480.5"/>
  <g>
    <polygon class="cls-2" points="191.56 232.4 177.84 256.51 136.77 328.73 81.16 232.4 110.28 232.4 137.1 278.84 163.92 232.4 191.56 232.4"/>
    <path class="cls-1" d="m137.1,288.25l-64.06-110.96,81.4-.06,10.68,18.49,11.1-18.64,78.23-.09-64.1,111.03-18-31.67,11-19.33h-16.66l-29.58,51.23Zm-47.5-101.41l47.5,82.28,24.4-41.51,5.37-.15h32.92l-16.44,28.9,7.06,12.43,47.46-82.21-56.21.06-16.66,27.99-16.07-27.83-59.32.05Z"/>
  </g>
  <g>
    <path d="m310.59,293.18h-3.6l-33.08-78.84h14.99l20.39,54.05,20.83-54.05h14.34l-33.87,78.84Z"/>
    <path d="m361.68,291.74v-65.65h-10.59v-11.53h24.29v77.18h-13.69Zm7.49-106.37c2.35,0,4.36.83,6.02,2.49,1.66,1.66,2.49,3.64,2.49,5.95s-.83,4.36-2.49,6.02c-1.66,1.66-3.66,2.49-6.02,2.49s-4.29-.83-5.95-2.49-2.49-3.66-2.49-6.02.82-4.35,2.45-5.98c1.63-1.63,3.63-2.45,5.98-2.45Z"/>
    <path d="m439.08,227.75c-2.98-2.06-5.98-3.1-9.01-3.1-4.85,0-9.09,2.23-12.72,6.7-3.63,4.47-5.44,9.85-5.44,16.14v44.25h-13.69v-77.18h13.69v12.32c5-9.18,12.42-13.76,22.27-13.76,2.45,0,5.98.43,10.59,1.3l-5.69,13.33Z"/>
    <path d="m459.4,225.37h-8.94v-10.81h8.94v-16.14l13.69-5.26v21.4h21.19v10.81h-21.19v38.34c0,6.49,1.09,11.1,3.28,13.84,2.18,2.74,5.7,4.11,10.56,4.11,3.51,0,7.13-.89,10.88-2.67l2.02,12.03c-5.67,1.44-11.89,2.16-18.66,2.16-6.1,0-11.25-2.27-15.46-6.81-4.2-4.54-6.31-10.27-6.31-17.19v-43.81Z"/>
    <path d="m519.64,291.74v-65.65h-10.59v-11.53h24.29v77.18h-13.69Zm7.49-106.37c2.35,0,4.36.83,6.02,2.49,1.66,1.66,2.49,3.64,2.49,5.95s-.83,4.36-2.49,6.02c-1.66,1.66-3.66,2.49-6.02,2.49s-4.29-.83-5.95-2.49-2.49-3.66-2.49-6.02.82-4.35,2.45-5.98c1.63-1.63,3.63-2.45,5.98-2.45Z"/>
    <path d="m550.05,252.97c0-11.91,3.21-21.53,9.62-28.86,6.41-7.33,14.86-10.99,25.33-10.99,11.05,0,19.62,3.52,25.73,10.56,6.1,7.04,9.15,16.8,9.15,29.29s-3.12,22.26-9.37,29.44c-6.25,7.18-14.75,10.77-25.51,10.77s-19.58-3.63-25.73-10.88c-6.15-7.25-9.22-17.03-9.22-29.33Zm14.41,0c0,19.36,6.85,29.04,20.54,29.04,6.39,0,11.4-2.59,15.03-7.78,3.63-5.19,5.44-12.27,5.44-21.26,0-19.12-6.82-28.68-20.47-28.68-6.25,0-11.23,2.55-14.95,7.64-3.72,5.09-5.59,12.11-5.59,21.04Z"/>
    <path d="m636.02,255.28v-12.61h30.84v12.61h-30.84Z"/>
    <path d="m759.83,293.18h-3.6l-22.63-52.53-22.56,52.53h-3.6l-27.6-78.84h14.63l16.5,50.66,20.54-50.66h3.6l21.19,50.66,17.73-50.66h13.48l-27.67,78.84Z"/>
    <path d="m804.94,291.74v-65.65h-10.59v-11.53h24.29v77.18h-13.69Zm7.49-106.37c2.35,0,4.36.83,6.02,2.49,1.66,1.66,2.49,3.64,2.49,5.95s-.83,4.36-2.49,6.02c-1.66,1.66-3.66,2.49-6.02,2.49s-4.29-.83-5.95-2.49-2.49-3.66-2.49-6.02.82-4.35,2.45-5.98c1.63-1.63,3.63-2.45,5.98-2.45Z"/>
    <path d="m887.89,291.74v-44.9c0-8.22-1.24-13.97-3.71-17.26-2.48-3.29-6.62-4.94-12.43-4.94-3.12,0-6.39.94-9.8,2.81-3.41,1.87-6.03,4.18-7.85,6.92v57.36h-13.69v-77.18h9.37l4.32,9.94c4.52-7.59,11.89-11.39,22.12-11.39,16.91,0,25.37,10.28,25.37,30.84v47.78h-13.69Z"/>
  </g>
</svg>