<?xml version="1.0" encoding="UTF-8"?>
<svg id="Layer_1" data-name="Layer 1" xmlns="http://www.w3.org/2000/svg" viewBox="0 0 288 288">
  <defs>
    <style>
      .cls-1 {
        stroke: #fff;
        stroke-miterlimit: 10;
        stroke-width: 11px;
      }

      .cls-1, .cls-2 {
        fill: #fff;
      }
    </style>
  </defs>
  <rect x="-.03" y="-.24" width="288" height="288"/>
  <g>
    <polygon class="cls-1" points="179.55 132.26 163.77 160 116.53 243.04 52.58 132.26 86.08 132.26 116.92 185.67 147.76 132.26 179.55 132.26"/>
    <path class="cls-2" d="m116.92,196.5L43.25,68.89l93.61-.07,12.28,21.27,12.76-21.43,89.96-.1-73.72,127.69-20.7-36.42,12.65-22.23h-19.16l-34.02,58.91Zm-54.63-116.62l54.63,94.62,28.05-47.74,6.18-.17h37.85l-18.91,33.24,8.12,14.29,54.58-94.54-64.64.07-19.16,32.19-18.49-32.01-68.22.05Z"/>
  </g>
</svg>