<?xml version="1.0" encoding="UTF-8"?>
<svg id="Layer_1" data-name="Layer 1" xmlns="http://www.w3.org/2000/svg" viewBox="0 0 939 288">
  <defs>
    <style>
      .cls-1, .cls-2 {
        stroke: #000;
        stroke-miterlimit: 10;
      }

      .cls-2 {
        stroke-width: 10px;
      }
    </style>
  </defs>
  <g>
    <polygon class="cls-2" points="160.76 130.2 146.41 155.42 103.46 230.95 45.3 130.2 75.75 130.2 103.8 178.77 131.85 130.2 160.76 130.2"/>
    <path class="cls-1" d="m103.8,188.62L36.8,72.57l85.13-.06,11.17,19.34,11.61-19.49,81.82-.09-67.04,116.13-18.83-33.13,11.5-20.22h-17.42l-30.94,53.58Zm-49.68-106.06l49.68,86.05,25.51-43.42,5.62-.16h34.43l-17.2,30.23,7.38,13,49.64-85.98-58.79.07-17.43,29.27-16.81-29.11-62.04.05Z"/>
  </g>
  <g>
    <path d="m285.25,193.77h-3.77l-34.59-82.45h15.68l21.33,56.53,21.78-56.53h15l-35.42,82.45Z"/>
    <path d="m338.69,192.27v-68.66h-11.08v-12.06h25.4v80.72h-14.32Zm7.84-111.25c2.46,0,4.56.87,6.29,2.6,1.73,1.73,2.6,3.81,2.6,6.22s-.87,4.56-2.6,6.29c-1.73,1.73-3.83,2.6-6.29,2.6s-4.48-.87-6.22-2.6-2.6-3.83-2.6-6.29.85-4.55,2.56-6.26c1.71-1.71,3.79-2.56,6.26-2.56Z"/>
    <path d="m419.63,125.34c-3.12-2.16-6.26-3.24-9.42-3.24-5.08,0-9.51,2.34-13.3,7.01-3.79,4.67-5.69,10.3-5.69,16.88v46.28h-14.32v-80.72h14.32v12.89c5.22-9.6,12.99-14.4,23.29-14.4,2.56,0,6.26.45,11.08,1.36l-5.95,13.94Z"/>
    <path d="m440.89,122.85h-9.35v-11.31h9.35v-16.88l14.32-5.5v22.38h22.16v11.31h-22.16v40.1c0,6.78,1.14,11.61,3.43,14.47,2.29,2.86,5.97,4.3,11.04,4.3,3.67,0,7.46-.93,11.38-2.79l2.11,12.59c-5.93,1.51-12.44,2.26-19.52,2.26-6.38,0-11.77-2.37-16.17-7.12-4.4-4.75-6.59-10.74-6.59-17.98v-45.82Z"/>
    <path d="m503.9,192.27v-68.66h-11.08v-12.06h25.4v80.72h-14.32Zm7.84-111.25c2.46,0,4.56.87,6.29,2.6,1.73,1.73,2.6,3.81,2.6,6.22s-.87,4.56-2.6,6.29c-1.73,1.73-3.83,2.6-6.29,2.6s-4.48-.87-6.22-2.6-2.6-3.83-2.6-6.29.85-4.55,2.56-6.26c1.71-1.71,3.79-2.56,6.26-2.56Z"/>
    <path d="m535.7,151.72c0-12.46,3.35-22.52,10.06-30.19,6.71-7.66,15.54-11.49,26.49-11.49,11.56,0,20.53,3.68,26.91,11.04,6.38,7.36,9.57,17.57,9.57,30.64s-3.27,23.28-9.8,30.79c-6.53,7.51-15.43,11.27-26.68,11.27s-20.48-3.79-26.91-11.38c-6.43-7.59-9.65-17.81-9.65-30.68Zm15.07,0c0,20.25,7.16,30.37,21.48,30.37,6.68,0,11.92-2.71,15.71-8.14,3.79-5.43,5.69-12.84,5.69-22.23,0-20-7.14-30-21.41-30-6.53,0-11.75,2.66-15.64,7.99-3.89,5.33-5.84,12.66-5.84,22.01Z"/>
    <path d="m625.62,154.13v-13.19h32.26v13.19h-32.26Z"/>
    <path d="m755.1,193.77h-3.77l-23.67-54.94-23.59,54.94h-3.77l-28.87-82.45h15.3l17.26,52.98,21.48-52.98h3.77l22.16,52.98,18.54-52.98h14.09l-28.94,82.45Z"/>
    <path d="m802.29,192.27v-68.66h-11.08v-12.06h25.4v80.72h-14.32Zm7.84-111.25c2.46,0,4.56.87,6.29,2.6,1.73,1.73,2.6,3.81,2.6,6.22s-.87,4.56-2.6,6.29c-1.73,1.73-3.83,2.6-6.29,2.6s-4.48-.87-6.22-2.6-2.6-3.83-2.6-6.29.85-4.55,2.56-6.26c1.71-1.71,3.79-2.56,6.26-2.56Z"/>
    <path d="m889.04,192.27v-46.96c0-8.59-1.29-14.61-3.88-18.05-2.59-3.44-6.92-5.16-13-5.16-3.27,0-6.68.98-10.25,2.94-3.57,1.96-6.31,4.37-8.21,7.24v59.99h-14.32v-80.72h9.8l4.52,10.4c4.72-7.94,12.44-11.91,23.14-11.91,17.69,0,26.53,10.75,26.53,32.26v49.97h-14.32Z"/>
  </g>
</svg>